<?xml version="1.0" encoding="UTF-8"?>
<svg id="Capa_2" data-name="Capa 2" xmlns="http://www.w3.org/2000/svg" xmlns:xlink="http://www.w3.org/1999/xlink" viewBox="0 0 212.76 212.75">
  <defs>
    <style>
      .cls-1 {
        fill: url(#Degradado_sin_nombre_2);
      }

      .cls-2 {
        fill: #0a234c;
      }
    </style>
    <linearGradient id="Degradado_sin_nombre_2" data-name="Degradado sin nombre 2" x1="0" y1="108.09" x2="209.33" y2="108.09" gradientUnits="userSpaceOnUse">
      <stop offset="0" stop-color="#c4c4c4"/>
      <stop offset="1" stop-color="#7a7e84"/>
    </linearGradient>
  </defs>
  <g id="Capa_1-2" data-name="Capa 1">
    <g>
      <path class="cls-1" d="M204.12,148.71c-1.28.42-2.57.82-3.87,1.2-7.8,2.24-15.96,3.67-24.36,4.13-1.25.07-2.51.13-3.77.15-.85.02-1.71.03-2.57.03-7.1,0-14.03-.67-20.75-1.95-1.18-.23-2.37-.47-3.53-.73-7.45-1.66-14.61-4.09-21.4-7.16-1.07-.48-2.12-.98-3.17-1.5-6.65-3.27-12.93-7.19-18.75-11.67-7.64-5.88-14.5-12.73-20.38-20.38-4.49-5.82-8.42-12.11-11.67-18.76-.54-1.05-1.03-2.1-1.51-3.17-3.08-6.8-5.5-13.95-7.15-21.4-.27-1.16-.51-2.33-.74-3.52-1.28-6.73-1.95-13.67-1.95-20.76,0-.85.01-1.71.03-2.56.02-1.26.07-2.53.15-3.78.47-8.41,1.89-16.56,4.13-24.36.38-1.3.77-2.59,1.2-3.85.01-.04.03-.08.04-.12,1.09-3.32-2.4-6.3-5.48-4.64-2.76,1.49-5.46,3.09-8.08,4.8-4.58,2.97-8.92,6.3-12.99,9.9-3.54,3.13-6.89,6.49-10,10.05C10.4,48.19,0,73.78,0,101.74c0,4.39.25,8.71.75,12.96.79,6.78,2.2,13.36,4.16,19.71,10.8,35.01,38.49,62.68,73.51,73.46,6.32,1.95,12.89,3.35,19.64,4.13,4.25.5,8.58.75,12.96.75,27.96,0,53.56-10.4,73.09-27.54,3.56-3.11,6.94-6.47,10.07-10.02,3.61-4.07,6.91-8.41,9.89-12.98,1.7-2.61,3.3-5.29,4.79-8.04,1.66-3.08-1.31-6.57-4.64-5.48-.03.01-.06.02-.09.03Z"/>
      <g>
        <path class="cls-2" d="M92.13,36.82s-.08,0-.12,0c-5.7,0-10.32,4.62-10.32,10.32s4.62,10.32,10.32,10.32h0c34.88,0,63.26,28.35,63.3,63.23,0,.02,0,.05,0,.07,0,5.7,4.62,10.32,10.32,10.32s10.32-4.62,10.32-10.32h0c0-46.24-37.59-83.87-83.82-83.93Z"/>
        <path class="cls-2" d="M92.01,73.62h0c-5.7,0-10.32,4.62-10.32,10.32s4.62,10.32,10.32,10.32h0c14.6,0,26.49,11.88,26.49,26.49,0,5.7,4.62,10.32,10.32,10.32s10.32-4.62,10.32-10.32c0-25.98-21.14-47.13-47.13-47.13Z"/>
        <path class="cls-2" d="M212.76,120.75h0C212.76,54.17,158.6,0,92.01,0c-5.7,0-10.32,4.62-10.32,10.32s4.62,10.32,10.32,10.32c55.2,0,100.11,44.91,100.11,100.11h0c0,5.7,4.62,10.32,10.32,10.32s10.32-4.62,10.32-10.32h0Z"/>
      </g>
    </g>
  </g>
</svg>